<svg xmlns="http://www.w3.org/2000/svg" xmlns:xlink="http://www.w3.org/1999/xlink" viewBox="0 0 157.61 92"><defs><style>.cls-1{fill:#421526;}.cls-2{fill:#d6d3c9;}.cls-3{fill:#edeade;}.cls-4{fill:#bbbdbf;}.cls-5{fill:#fff;}.cls-6{fill:url(#radial-gradient);}.cls-7{fill:#fcc062;}.cls-8{fill:#f15a24;}.cls-9{fill:#fbb03b;}.cls-10{fill:#d14318;}</style><radialGradient id="radial-gradient" cx="40.14" cy="39.48" r="25.64" gradientUnits="userSpaceOnUse"><stop offset="0" stop-color="#fcee21"/><stop offset="0.56" stop-color="#fbc931"/><stop offset="1" stop-color="#fbb03b"/></radialGradient></defs><g id="Layer_2" data-name="Layer 2"><g id="Ui"><path class="cls-1" d="M30,92A30,30,0,0,1,0,62V30A30,30,0,0,1,30,0H62A30.17,30.17,0,0,1,86.13,12.2h41a8.25,8.25,0,0,1,1.22.09A34,34,0,0,1,137.38,77a26.25,26.25,0,0,1-10.67,2.16H86.56A30.07,30.07,0,0,1,62,92Z"/><path class="cls-2" d="M127.63,17.24a3.08,3.08,0,0,0-.53,0H83.47A25,25,0,0,0,62,5H30A25,25,0,0,0,5,30V62A25,25,0,0,0,30,87H62A25,25,0,0,0,83.81,74.2h42.9a21.39,21.39,0,0,0,8.65-1.73,29,29,0,0,0-7.73-55.23Z"/><path class="cls-2" d="M127.63,17.24a3.08,3.08,0,0,0-.53,0H49.73a28.5,28.5,0,0,0-28.5,28.5h0a28.5,28.5,0,0,0,28.5,28.5h77a21.39,21.39,0,0,0,8.65-1.73,29,29,0,0,0-7.73-55.23Z"/><rect class="cls-2" x="5" y="5" width="82" height="82" rx="25" transform="translate(92) rotate(90)"/><rect class="cls-3" x="9.61" y="10.95" width="72" height="72" rx="20" transform="translate(92.57 1.34) rotate(90)"/><path class="cls-4" d="M69.62,51.88c-.13.06-.25.13-.39.18l-8.25,3a2.33,2.33,0,0,0-1.54,2.31l.34,8.79a5.27,5.27,0,0,1-1.86,4.29c.15.31.29.63.43,1a.1.1,0,0,1,0,0,6.24,6.24,0,0,0,2.38-5.23l-.35-8.8a1.36,1.36,0,0,1,.9-1.33L69.58,53a4,4,0,0,0,.59-.27Z"/><path class="cls-5" d="M52.38,70.3a4.74,4.74,0,0,1-3.78-1.86l-5.45-6.91a2.87,2.87,0,0,0-2.25-1.09,2.76,2.76,0,0,0-1,.18l-8.26,3.05a5,5,0,0,1-1.73.32,4.85,4.85,0,0,1-4.26-2.61,4.76,4.76,0,0,1,.26-5l4.88-7.32a2.85,2.85,0,0,0-.13-3.36l-5.45-6.91a4.74,4.74,0,0,1-.57-5.12A4.8,4.8,0,0,1,29,30.92a4.91,4.91,0,0,1,1.36.19l8.48,2.38a2.87,2.87,0,0,0,.77.11h0A2.88,2.88,0,0,0,42,32.32L46.87,25a4.77,4.77,0,0,1,4-2.17,4.82,4.82,0,0,1,4.9,4.68l.35,8.8A2.85,2.85,0,0,0,58.22,39l8.47,2.39a4.86,4.86,0,0,1,.37,9.25l-8.25,3a2.86,2.86,0,0,0-1.87,2.8l.35,8.79A4.82,4.82,0,0,1,56,68.78,5,5,0,0,1,52.38,70.3Z"/><path class="cls-6" d="M54.79,27.55l.35,8.8A3.87,3.87,0,0,0,58,39.92l8.47,2.38a3.87,3.87,0,0,1,.3,7.35L58.46,52.7a3.86,3.86,0,0,0-2.52,3.78l.35,8.79a3.87,3.87,0,0,1-6.9,2.55l-5.46-6.9a3.85,3.85,0,0,0-4.37-1.24l-8.26,3A3.86,3.86,0,0,1,26.75,57l4.88-7.32a3.86,3.86,0,0,0-.18-4.54L26,38.19a3.87,3.87,0,0,1,4.08-6.12l8.48,2.39a3.88,3.88,0,0,0,4.26-1.58l4.89-7.32A3.87,3.87,0,0,1,54.79,27.55Z"/><path class="cls-7" d="M32.05,59.64l6.09-9.13a4.82,4.82,0,0,0-.22-5.66l-6.8-8.62a4.65,4.65,0,0,1-.9-4.12l-.14,0A3.87,3.87,0,0,0,26,38.19l5.45,6.91a3.86,3.86,0,0,1,.18,4.54L26.75,57a3.86,3.86,0,0,0,4.49,5.79A4.8,4.8,0,0,1,32.05,59.64Z"/><path class="cls-8" d="M68.29,43.47a4.34,4.34,0,0,1-2.74,2.89l-9.62,3.56A4.49,4.49,0,0,0,53,54.32l.41,10.24a4.41,4.41,0,0,1-2.74,4.32,3.88,3.88,0,0,0,5.63-3.61l-.35-8.79a3.86,3.86,0,0,1,2.52-3.78l8.26-3.05A3.87,3.87,0,0,0,68.29,43.47Z"/><path class="cls-9" d="M29.87,60.93,33,52.71a3.86,3.86,0,0,0-.9-4.12,3.86,3.86,0,0,1-.49,1L26.75,57a3.86,3.86,0,0,0,2.91,6A3.82,3.82,0,0,1,29.87,60.93Z"/><path class="cls-10" d="M68.47,43.68A3.89,3.89,0,0,1,67.23,45l-7.37,4.8a3.82,3.82,0,0,0-1.75,3.09l.35-.16,8.26-3.05A3.88,3.88,0,0,0,68.47,43.68Z"/><path class="cls-5" d="M49.64,32.05l.74,4a.63.63,0,0,0,.77.43.64.64,0,0,0,.44-.77l-.74-4a.64.64,0,0,0-.77-.44.65.65,0,0,0-.44.77Z"/></g></g></svg>