<svg xmlns="http://www.w3.org/2000/svg" xmlns:xlink="http://www.w3.org/1999/xlink" viewBox="0 0 402 348.62"><defs><style>.cls-1{isolation:isolate;}.cls-2{fill:#2c2c2c;}.cls-3{fill:#161616;}.cls-4,.cls-7{fill:#f7931e;}.cls-5{fill:#f15a24;}.cls-6{fill:url(#linear-gradient);}.cls-7{opacity:0.57;mix-blend-mode:screen;}.cls-8{fill:#fdd089;}.cls-9{fill:#ce411b;}.cls-10{fill:#eeebdf;}.cls-11{fill:#050505;}.cls-12{fill:#ed3650;}.cls-13{fill:#952037;}.cls-14{fill:#fff;}.cls-15{fill:#e8e8e8;}.cls-16{fill:#d0cece;}.cls-17{fill:#fcfcfc;}</style><linearGradient id="linear-gradient" x1="235.83" y1="262.34" x2="222" y2="114.16" gradientUnits="userSpaceOnUse"><stop offset="0" stop-color="#ed1c24"/><stop offset="0.45" stop-color="#f47823"/><stop offset="1" stop-color="#fcee21"/></linearGradient></defs><g class="cls-1"><g id="Layer_2" data-name="Layer 2"><g id="Character"><ellipse class="cls-2" cx="201" cy="326.62" rx="201" ry="22"/><path class="cls-3" d="M64.05,263l61.2-13.59A11.79,11.79,0,0,0,133.38,233a103.64,103.64,0,0,1,37.14-129,3.6,3.6,0,0,0-1.14-6.47,42,42,0,1,1,39.66-10c-.45.43-.92.84-1.38,1.24a103,103,0,0,1,65,8.33,3.43,3.43,0,0,0,4.89-2.87l.58-8.48a4.64,4.64,0,0,0-2.91-4.65A42,42,0,1,1,299.63,83h0a3.56,3.56,0,0,0-2.79,3.24l-1.13,16.33a19.08,19.08,0,0,0,5.42,14.77,103,103,0,0,1,27.62,50.53c6.39,28.77,4.54,57.62-9.68,80.36a52.81,52.81,0,0,0-7.66,21.59h0a9.68,9.68,0,0,0,1.87,7.09c4.6,6,23.75,9.69,19.75,21.69-2.52,7.57-10.82,17.85-33,24.2a108.47,108.47,0,0,1-40.21,3.56L106.67,312C99,313.65,91.45,322,82.79,328.48c-14.1,10.47-34.33,2.74-38.14-14.4l-3.39-15.26A30.09,30.09,0,0,1,64.05,263Z"/><path class="cls-4" d="M68.53,327.23a18.34,18.34,0,0,1-18-14.45l-3.39-15.26a24,24,0,0,1,18.23-28.64l61.2-13.59a17.78,17.78,0,0,0,12.29-24.73,98.18,98.18,0,0,1-6.34-19.1A97.51,97.51,0,0,1,173.83,109,9.44,9.44,0,0,0,178,99.53a9.7,9.7,0,0,0-7.06-7.77,36,36,0,1,1,34-8.58c-.38.36-.79.72-1.19,1.06a6,6,0,0,0,3.92,10.54,5.79,5.79,0,0,0,1.17-.11,97.13,97.13,0,0,1,61.23,7.84,9.33,9.33,0,0,0,4.07.94,9.46,9.46,0,0,0,9.41-8.8l.59-8.48a10.6,10.6,0,0,0-6.71-10.64,36,36,0,0,1,2.77-68A36,36,0,0,1,325.66,34.2a36,36,0,0,1-27.34,43,9.65,9.65,0,0,0-7.5,8.7l-1.12,16.32a25,25,0,0,0,7.15,19.42,97.19,97.19,0,0,1,26,47.6c8.35,37.59-.24,62-8.91,75.88a59.27,59.27,0,0,0-8.53,24,15.65,15.65,0,0,0,3.06,11.48c2.27,3,5.92,5,9.78,7.15,8.69,4.85,9.88,6.5,9.05,9-4,12-21.56,18.21-28.92,20.33a100.94,100.94,0,0,1-27.8,3.83c-3.37,0-6.8-.16-10.2-.48L107.23,306l-.56,0a6.24,6.24,0,0,0-1.3.14c-6.81,1.52-12.7,6.48-18.94,11.73-2.35,2-4.78,4-7.22,5.84A17.79,17.79,0,0,1,68.53,327.23Z"/><path class="cls-5" d="M275.66,69.83a36,36,0,0,1,2-57.22c.9-1.1,1.83-2.14,2.79-3.1a41.86,41.86,0,0,1,3.12-2.81c-1.15.22-2.3.49-3.44.82a36,36,0,0,0-5.95,66.57h0a44.77,44.77,0,0,1,5.34.33A38.13,38.13,0,0,1,275.66,69.83Z"/><path class="cls-6" d="M238.19,245.33c-24.5-.32-48.57-13.73-60.06-37a23.26,23.26,0,0,1-1.11-2.63,6.88,6.88,0,0,0-6.5-4.35q-1.34,0-2.67,0c-3.5,0-6.89.12-10.09.36q-.85.06-1.71.06a22.94,22.94,0,0,1-22.72-22c-.41-8.68,2.77-17.84,6-25.78,9.36-22.64,26.89-42.2,49.94-51.32,25-9.88,60.57-5.6,84.68,5,18.28,8.06,33.68,25,42.2,42.89,7.88,16.52,12.13,45.78-11.56,51.39l-.23,0a7.25,7.25,0,0,0-4.92,4.18A67,67,0,0,1,238.19,245.33Z"/><path class="cls-7" d="M165.36,62.87a162.65,162.65,0,0,1,24-8.17,16.15,16.15,0,0,0,0-2A16,16,0,0,0,172.24,37.6a15.7,15.7,0,0,0-11,5.63,16.22,16.22,0,0,0-2.94,15.26A32.45,32.45,0,0,1,165.36,62.87Z"/><path class="cls-8" d="M291,114.71v0l0,.09Z"/><path class="cls-8" d="M317.26,287.73c-3.86-2.16-7.51-4.19-9.78-7.15a15.65,15.65,0,0,1-3.06-11.48,59.27,59.27,0,0,1,8.53-24c8.67-13.87,17.26-38.29,8.91-75.88a97.34,97.34,0,0,0-19.52-40.37,107.63,107.63,0,0,1,11,51.47c-1.72,44-19.43,67.91-34,80.22A64.26,64.26,0,0,0,261.84,284a16.82,16.82,0,0,0,.08,13.6c1.78,4,5.47,7.45,9.38,11.1,7.35,6.86,9.18,9.53,8.56,11.66a99,99,0,0,0,17.53-3.32c7.36-2.12,24.92-8.33,28.92-20.33C327.14,294.23,326,292.58,317.26,287.73Z"/><path class="cls-5" d="M123.39,287.05a24.93,24.93,0,0,0,25.76-28.91,136.75,136.75,0,0,1,92.19-151.41,13.21,13.21,0,0,0,9.1-11.21,96.76,96.76,0,0,0-41.62-.85,5.79,5.79,0,0,1-1.17.11,6,6,0,0,1-3.92-10.54c.4-.34.81-.7,1.19-1.06a36,36,0,0,0,1.52-50.89,36,36,0,0,0-51.7-.73,36,36,0,0,0,16.18,60.2A9.7,9.7,0,0,1,178,99.53a9.44,9.44,0,0,1-4.15,9.49,97.7,97.7,0,0,0-35,121.54,17.78,17.78,0,0,1-12.29,24.73l-61.2,13.59a24,24,0,0,0-17.08,14.55Z"/><path class="cls-9" d="M211.65,94.78a5.79,5.79,0,0,0,1.17-.11,98.58,98.58,0,0,1,16.75-1.84l-1.8,0a98.7,98.7,0,0,0-18,1.67A6,6,0,0,0,211.65,94.78Z"/><path class="cls-9" d="M52.27,283.43a24,24,0,0,1,17.08-14.55l61.2-13.59a17.78,17.78,0,0,0,12.29-24.73,98.18,98.18,0,0,1-6.34-19.1A97.51,97.51,0,0,1,177.83,109,9.44,9.44,0,0,0,182,99.53a9.7,9.7,0,0,0-7.06-7.77A36,36,0,0,1,182.24,21c-.67,0-1.34-.05-2-.05a36,36,0,0,0-9.31,70.78A9.7,9.7,0,0,1,178,99.53a9.44,9.44,0,0,1-4.15,9.49,97.7,97.7,0,0,0-35,121.54,17.78,17.78,0,0,1-12.29,24.73l-61.2,13.59a24,24,0,0,0-17.08,14.55l75.12,3.62a24,24,0,0,0,3.06-.05Z"/><path class="cls-9" d="M169.31,59.91a40.37,40.37,0,0,1,13.22-39.47A40.92,40.92,0,0,1,200.1,89.83c-.22.21-.46.41-.69.62A40.4,40.4,0,0,1,169.31,59.91Z"/><path class="cls-3" d="M173.31,57.91a40.37,40.37,0,0,1,13.22-39.47A40.92,40.92,0,0,1,204.1,87.83c-.22.21-.46.41-.69.62A40.4,40.4,0,0,1,173.31,57.91Z"/><path class="cls-3" d="M282.31,42.91A40.32,40.32,0,0,1,292,6.82,7.36,7.36,0,0,1,300.18,5c5.48,2.18,7.63,3.57,12.82,6.64,23.18,13.74,16.59,42.82,2.72,58.5l-7.75,2A40.35,40.35,0,0,1,282.31,42.91Z"/><path class="cls-10" d="M178.08,56.91a32.48,32.48,0,0,1,10.64-31.78A32.93,32.93,0,0,1,202.87,81l-.56.5A32.5,32.5,0,0,1,178.08,56.91Z"/><path class="cls-10" d="M287.63,42.82a32.49,32.49,0,0,1,11.66-32.61,33,33,0,0,1,12.35,57.14A32.5,32.5,0,0,1,287.63,42.82Z"/><path class="cls-11" d="M249.55,236.62c-.91.17-1.84.33-2.77.46a59.2,59.2,0,0,1-61.48-32.33,15.26,15.26,0,0,1,0-13.64,15.58,15.58,0,0,1,11.06-8.44l.75-.12,81.75-11.84a15.52,15.52,0,0,1,13.49,4.59,15.22,15.22,0,0,1,4.16,13.33,59.14,59.14,0,0,1-47,48Z"/><path class="cls-12" d="M279.18,172.69l-3.73.54-65.64,9.51-12.38,1.79a13.58,13.58,0,0,0-10.33,19.34A57.12,57.12,0,0,0,294.58,188.3,13.57,13.57,0,0,0,279.18,172.69Z"/><path class="cls-11" d="M279.18,172.69l-3.73.54-65.64,9.51-12.38,1.79a13.58,13.58,0,0,0-10.33,19.34,57.1,57.1,0,0,0,24,24.92c6.5-10.85,18.57-18.93,32.86-21,13.67-2,26.88,1.85,36.13,9.64a57.08,57.08,0,0,0,14.45-29.13A13.57,13.57,0,0,0,279.18,172.69Z"/><path class="cls-13" d="M242.31,211.26a48.93,48.93,0,0,1,15.34-3.51,49.32,49.32,0,0,0-13.62,0c-14.3,2-26.39,10.09-32.91,20.94a58.28,58.28,0,0,0,7.45,3.4A47,47,0,0,1,242.31,211.26Z"/><ellipse class="cls-14" cx="244.19" cy="224.01" rx="3.16" ry="0.96" transform="translate(-29.59 37.32) rotate(-8.24)"/><ellipse class="cls-14" cx="251.44" cy="215.46" rx="1.92" ry="0.92" transform="translate(-28.29 38.27) rotate(-8.24)"/><path class="cls-12" d="M250.67,234.32c-.38.09-.75.18-1.13.25C249.92,234.5,250.29,234.41,250.67,234.32Z"/><path class="cls-12" d="M253.57,233.61l-.75.2Z"/><path class="cls-13" d="M252.82,233.81c-.71.19-1.43.35-2.15.51C251.39,234.16,252.11,234,252.82,233.81Z"/><path class="cls-13" d="M270.4,223.6a57,57,0,0,1-17.21,8.05l-.75.2c-.71.19-1.43.35-2.15.51l-1.13.25c-1,.2-2,.38-3,.53A56.16,56.16,0,0,1,212,227.47c-.29.44-.59.87-.86,1.32a56.57,56.57,0,0,0,35.35,6.32c1-.15,2-.34,3-.54.38-.07.75-.16,1.13-.25.72-.16,1.44-.32,2.15-.51l.75-.2a56.62,56.62,0,0,0,26.56-16.18c-.42-.35-.85-.69-1.29-1A57,57,0,0,1,270.4,223.6Z"/><path class="cls-15" d="M245.29,179l2.29,15.86a18.87,18.87,0,0,0,7.39.44,19.86,19.86,0,0,0,11.29-5.92l-1.9-13.15Z"/><path class="cls-16" d="M246.24,183.94l18.84-2.73-.72-5L245.29,179l2.29,15.86.25.05Z"/><path class="cls-2" d="M317.36,34.83a5,5,0,1,1-5.64-6.25,10.1,10.1,0,0,0-2.29-.67,10,10,0,1,0,8.26,11.48A9.82,9.82,0,0,0,317.36,34.83Z"/><path class="cls-2" d="M206.73,49.52a5,5,0,1,1-5.64-6.25,10.26,10.26,0,0,0-2.29-.67,10,10,0,1,0,7.93,6.92Z"/><path class="cls-7" d="M278.13,25.43a8.26,8.26,0,0,1-.32-1.28,8.19,8.19,0,0,1-1-.64,4.48,4.48,0,0,0-3.21-.89,4.14,4.14,0,0,0-2.78,1.61,4.31,4.31,0,0,0,.12,5.26,4.56,4.56,0,0,0,.93.82,4.2,4.2,0,0,0,5.48-.78A4.15,4.15,0,0,0,278.13,25.43Z"/><path class="cls-9" d="M191.43,115.88A12.61,12.61,0,0,1,191,114a11.46,11.46,0,0,1-1.48-.93,6.54,6.54,0,0,0-4.7-1.31,6.05,6.05,0,0,0-4.08,2.37,6.28,6.28,0,0,0,.18,7.7,6.08,6.08,0,0,0,1.36,1.21,6.15,6.15,0,0,0,8-1.15A6.06,6.06,0,0,0,191.43,115.88Z"/><path class="cls-9" d="M206.17,108.63a18,18,0,0,1-.7-2.76,16.4,16.4,0,0,1-2.17-1.36,9.53,9.53,0,0,0-6.89-1.92,8.82,8.82,0,0,0-6,3.47,9.2,9.2,0,0,0,.26,11.3,9.47,9.47,0,0,0,2,1.77,9,9,0,0,0,11.78-1.69A8.9,8.9,0,0,0,206.17,108.63Z"/><path class="cls-7" d="M278.75,20.2a3.29,3.29,0,0,1-.15-.6,3.31,3.31,0,0,1-.47-.29,2.06,2.06,0,0,0-1.48-.41,1.9,1.9,0,0,0-1.28.75,2,2,0,0,0,.05,2.42,2.21,2.21,0,0,0,.43.38,1.94,1.94,0,0,0,2.9-2.25Z"/><path class="cls-17" d="M305.39,293.91a11.6,11.6,0,0,1,1.77,0c.29,0,.29,0,0,0l.44.08c.22,0,.44.09.65.15a8.52,8.52,0,0,1,.86.26c.09,0,.93.38.45.16a16.82,16.82,0,0,1,1.52.79c.49.29,1,.6,1.43.93.07,0,.8.6.41.3l.63.5c.92.76,1.81,1.57,2.69,2.37a2.5,2.5,0,0,0,3.54-3.53c-3.93-3.57-8.67-7.63-14.38-6.95a2.55,2.55,0,0,0-2.5,2.5c.05,1.22,1.11,2.67,2.5,2.5Z"/></g></g></g></svg>