<svg id="Layer_1" data-name="Layer 1" xmlns="http://www.w3.org/2000/svg" xmlns:xlink="http://www.w3.org/1999/xlink" viewBox="0 0 175 200"><defs><style>.cls-1{fill:#030203;}.cls-2{fill:#414042;}.cls-3{fill:#58595b;}.cls-4{fill:#6d6e71;}.cls-5{fill:#2d2d2d;}.cls-6{fill:#d1d3d4;}.cls-7{fill:#ded8c8;}.cls-8{fill:#a7a9ac;}.cls-9{fill:url(#linear-gradient);}.cls-10{fill:url(#linear-gradient-2);}.cls-11{fill:url(#linear-gradient-3);}.cls-12{fill:url(#linear-gradient-4);}.cls-13{fill:#ee3650;}.cls-14{fill:#e8e9e9;}.cls-15{fill:#8e8e8e;}.cls-16{fill:#972038;}.cls-17{fill:#fff;}</style><linearGradient id="linear-gradient" x1="82.94" y1="63.73" x2="85.76" y2="63.73" gradientUnits="userSpaceOnUse"><stop offset="0" stop-color="#e6e6e5"/><stop offset="1" stop-color="#fff"/></linearGradient><linearGradient id="linear-gradient-2" x1="82.94" y1="66.31" x2="83.92" y2="66.31" xlink:href="#linear-gradient"/><linearGradient id="linear-gradient-3" x1="-197.13" y1="63.73" x2="-194.31" y2="63.73" gradientTransform="matrix(-1, 0, 0, 1, -101.46, 0)" xlink:href="#linear-gradient"/><linearGradient id="linear-gradient-4" x1="-197.13" y1="66.31" x2="-196.15" y2="66.31" gradientTransform="matrix(-1, 0, 0, 1, -101.46, 0)" xlink:href="#linear-gradient"/></defs><path class="cls-1" d="M155,61.27c-16-26.24-47.22-51.05-64.25-51.05a15.08,15.08,0,0,0-5.28.89C76.85,14.35,57.4,30.77,41.24,48.48,14.11,78.22,8.85,96.3,9.22,106.24a21.05,21.05,0,0,0,6.26,14.55C20,125.15,26,126.89,32.05,128c1.9.34,17.18,3.86,17.83,2.95-6.43,8.92-12.54,18.17-17,28.25-3.06,6.94-6.64,15.68-3.15,23.11s11.7,7.81,18.71,7.4c21-1.22,41.36-3.29,62.37-2.64,6.42.19,9.77-2.34,10.29-9,.71-9.08-.56-18.49-2.14-27.41a160.34,160.34,0,0,0-4-17.25,111.49,111.49,0,0,0,33.13-9.56l.09,0,.1-.06.33-.17a35.38,35.38,0,0,0,13.47-13.9C168.81,96.61,166.37,79.88,155,61.27Z"/><path class="cls-2" d="M87.25,15.78C69.18,22.54-20.52,108.09,28.83,122.47c3.16,0,9.68-.86,13.89-6.36,5.44-7.1,36-20.6,52.43-13.89,15,6.15,31.32,18.38,50.86,17.08a30.37,30.37,0,0,0,11.63-11.92C176.34,71.14,106.58,8.55,87.25,15.78Z"/><path class="cls-3" d="M94.35,125.58a300.47,300.47,0,0,1-49.94-4.71c-15.17-.83-23.58-5.91-25-15.1C17.65,94.18,27.31,76,46.62,54.49,63.08,36.18,80.51,22.14,87.21,19.63l.43-.14a10.52,10.52,0,0,1,3.06-.43c10.86,0,31.13,14.08,46.15,32.05,8.14,9.73,26,34.45,16,53.86-3.78,7.34-11.37,12.8-22.55,16.23l0,0C120.76,124.11,108.7,125.58,94.35,125.58Z"/><path class="cls-4" d="M97.51,120.93c-8,0-16.62-.46-25.76-1.36a1,1,0,0,1-.75-.48c-14.62-24,5.29-39.66,22.86-53.45,13.67-10.73,25.48-20,18.91-31.06a1,1,0,0,1,.18-1.24,1,1,0,0,1,.67-.26,1,1,0,0,1,.59.18A126.92,126.92,0,0,1,136.3,54.08c7.54,9,24.13,31.83,15.4,48.77-3.2,6.19-9.86,10.88-19.81,13.93C122.93,119.54,111.36,120.93,97.51,120.93Z"/><path class="cls-5" d="M95.15,102.22c-16.42-6.71-47,6.79-52.43,13.89-4.21,5.5-10.73,6.31-13.89,6.36,14.08,1,73.15,18,117.18-3.17C126.47,120.6,110.19,108.37,95.15,102.22Z"/><path class="cls-2" d="M92.71,127.89c-20.17,0-38.95-3.32-51.37-5.51L39.06,122v-.1a17.3,17.3,0,0,0,5.26-4.55c2-2.59,8.37-6.45,15.54-9.38,5.06-2.07,15-5.55,24.69-5.55a26.12,26.12,0,0,1,9.86,1.68c3.91,1.59,7.88,3.6,12.08,5.72,9,4.51,19.08,9.63,30.15,11.15l.07.1C124.07,125.59,109.28,127.89,92.71,127.89Z"/><path class="cls-5" d="M112.05,119.43A83.53,83.53,0,0,0,99,114.19c-4.62-1.25-9.27-1.23-14-1.51-4.39-.26-8.72-1.32-13.13-1-4.93.4-9.72,1.94-14.47,3.21a6.13,6.13,0,0,0-3,2.28c-2.88,3.12-3.48,8.63,2.58,9.21,9,.86,17.51-.11,26.23.58,8.92.71,17.4,2.6,26.37,1.61C113.85,128.13,117,121.73,112.05,119.43Z"/><path class="cls-6" d="M116.48,151.49c-2.7-15.22-7.06-28.14-12-35.88a73.76,73.76,0,0,0-20.8-3.24,80.21,80.21,0,0,0-9.87.38,36.87,36.87,0,0,0-3.11,2.73C59.07,129,30.36,166.73,36.68,180.14c1.6,3.41,5.81,5.06,12.51,4.91,1.32,0,2.74-.13,4.24-.3,16.29-1.83,29.95-2.89,40.6-3.13,8.2-.18,13,.13,16.55.36,1.79.11,3.21.2,4.42.18a13.1,13.1,0,0,0,2.33-.25C118.65,180.34,119.74,169.85,116.48,151.49Z"/><path class="cls-7" d="M42.12,184.83l.67-.06q7.74-.89,14.68-1.51a3.39,3.39,0,0,0,3-3.1c1.54-18.68,30.25-19.58,16.8-44.57,0-.09-.63-1.43-1.59-3.42a3.39,3.39,0,0,1,1.63-4.55c5.23-2.39,10.35-5,14.81-5.85a3.38,3.38,0,0,0,2.4-5l0-.06a3.28,3.28,0,0,0-1.87-1.46,73.64,73.64,0,0,0-17.21-2.78c.93,0,1.88-.08,2.85-.09-1.06,0-2.09.05-3.11.1l-.67,0c-.7,0-1.4.09-2.09.15a3.35,3.35,0,0,0-1.85.77c-1.1.92-1.87,1.64-2.17,1.94l-.2.21-.9,1.06c-.33.38-.67.79-1,1.2l0,0h0c-12.62,15.1-38,49.58-32,62.28,1.4,3,4.78,4.6,10.07,4.88Q43.16,185,42.12,184.83Z"/><path class="cls-8" d="M42.12,184.83l.67-.06q7.74-.89,14.68-1.51a3.39,3.39,0,0,0,3-3.1c1.54-18.68,30.25-19.58,16.8-44.57,0-.09-.63-1.43-1.59-3.42a3.39,3.39,0,0,1,1.63-4.55c5.23-2.39,10.35-5,14.81-5.85a3.38,3.38,0,0,0,2.4-5l0-.06a3.28,3.28,0,0,0-1.87-1.46,73.64,73.64,0,0,0-17.21-2.78c.93,0,1.88-.08,2.85-.09-1.06,0-2.09.05-3.11.1l-.67,0c-.7,0-1.4.09-2.09.15a3.35,3.35,0,0,0-1.85.77c-1.1.92-1.87,1.64-2.17,1.94l-.2.21-.9,1.06c-.33.38-.67.79-1,1.2l0,0h0c-12.62,15.1-38,49.58-32,62.28,1.4,3,4.78,4.6,10.07,4.88Q43.16,185,42.12,184.83Z"/><path class="cls-7" d="M45.39,185.07l-1.07,0Z"/><path class="cls-7" d="M46.76,185.07c-.42,0-.84,0-1.24,0C45.92,185.08,46.34,185.08,46.76,185.07Z"/><path class="cls-1" d="M116.16,121.85c-.53-4-7.21-7.73-16.81-9.92a88.9,88.9,0,0,0-17.8-2.09c-1.55,0-3.07,0-4.56,0-16,.43-27.83,4.9-27.08,10.63.26,1.92,1.89,3.75,4.56,5.39a5.73,5.73,0,0,1-2-3.31c-.6-4.61,7.58-8.34,19.47-9.5a83.3,83.3,0,0,1,9.8-.36,76.82,76.82,0,0,1,20.65,3.06c6.59,2,11,4.93,11.36,8a4.42,4.42,0,0,1-1.61,3.78C115,126,116.44,124,116.16,121.85Z"/><path class="cls-1" d="M60.08,87.57A20.31,20.31,0,0,1,53.22,94c-7,4.14-14.7,4.06-17.49-.18-1.54-2.33-1.3-5.46.65-8.57a20.4,20.4,0,0,1,6.86-6.38c7-4.14,14.7-4.06,17.49.18C62.27,81.33,62,84.46,60.08,87.57Z"/><path class="cls-6" d="M55.82,90.79a22,22,0,0,1-3.19,2.27A20,20,0,0,1,43.53,96c-3.17.12-5.61-.85-6.86-2.75-2-3-.38-7.51,4-11.24a21.29,21.29,0,0,1,3.19-2.27c6.48-3.83,13.5-3.9,16-.16C61.76,82.54,60.17,87.06,55.82,90.79Z"/><path class="cls-1" d="M133.05,99.94c-3.54.19-6.65-2.16-7.07-5.35A5.77,5.77,0,0,1,127.37,90a7,7,0,0,1,4.55-2.38l.5,0A6.59,6.59,0,0,1,139.5,93a5.77,5.77,0,0,1-1.4,4.56,7,7,0,0,1-4.55,2.37Z"/><path class="cls-6" d="M131.26,99.06a5.59,5.59,0,0,1-4.47-4.57,5,5,0,0,1,1.23-4,6.18,6.18,0,0,1,4-2.09,6.7,6.7,0,0,1,2.19.1,5.64,5.64,0,0,1,4.48,4.58,5.14,5.14,0,0,1-1.23,4,6.21,6.21,0,0,1-4,2.08A6.5,6.5,0,0,1,131.26,99.06Z"/><path class="cls-1" d="M97.47,34.8a3.38,3.38,0,0,1-4.26-5.24l.2-.16a3.38,3.38,0,0,1,4.26,5.24Z"/><path class="cls-6" d="M96.26,34.33a2.38,2.38,0,0,1-3.18-2.4,2.29,2.29,0,0,1,.79-1.62,2.38,2.38,0,1,1,2.39,4Z"/><path class="cls-1" d="M88.25,46.72a9.9,9.9,0,0,1-15.76-8.57A9.68,9.68,0,0,1,75.8,31.4c.19-.16.37-.32.57-.46A9.89,9.89,0,0,1,92.12,39.5a9.72,9.72,0,0,1-3.31,6.76C88.63,46.42,88.44,46.57,88.25,46.72Z"/><path class="cls-6" d="M85.31,47a8.74,8.74,0,0,1-9.49-2.47,8.65,8.65,0,0,1-2.15-6.29,8.51,8.51,0,0,1,2.91-5.94,8.34,8.34,0,0,1,2.72-1.61A8.74,8.74,0,0,1,91,39.43,8.59,8.59,0,0,1,88,45.37,8.49,8.49,0,0,1,85.31,47Z"/><path class="cls-1" d="M136.83,85.52c-5.58,1.76-12.45-.78-16-5.9C117,74.1,118.49,67.56,124.13,65a9.83,9.83,0,0,1,1.18-.44c5.57-1.76,12.45.77,16,5.89,3.82,5.52,2.35,12.07-3.3,14.58A11.78,11.78,0,0,1,136.83,85.52Z"/><path class="cls-6" d="M130.36,84.72a14,14,0,0,1-8.42-5.59,9.88,9.88,0,0,1-1.81-7.49A7.78,7.78,0,0,1,124.77,66a11.24,11.24,0,0,1,7-.57A13.94,13.94,0,0,1,140.19,71,9.86,9.86,0,0,1,142,78.48a7.76,7.76,0,0,1-4.64,5.66A11.17,11.17,0,0,1,130.36,84.72Z"/><path class="cls-1" d="M58.36,72.11c-3.1.59-6.54-1.46-8-4.77C48.78,63.77,50.1,60,53.3,59c.22-.07.44-.12.66-.17,3.1-.58,6.54,1.47,8,4.78,1.58,3.57.26,7.31-2.94,8.35A4.54,4.54,0,0,1,58.36,72.11Z"/><path class="cls-6" d="M55.05,70.88a7.3,7.3,0,0,1-3.84-3.81,6.17,6.17,0,0,1-.34-4.38,4.31,4.31,0,0,1,2.8-2.85,5.21,5.21,0,0,1,3.61.22,7.31,7.31,0,0,1,3.83,3.81,6.12,6.12,0,0,1,.34,4.38,4.28,4.28,0,0,1-2.8,2.84A5.18,5.18,0,0,1,55.05,70.88Z"/><path class="cls-3" d="M76.15,93.76a7,7,0,0,1-5.63-2.84,6.58,6.58,0,0,1-1-6.07,18.88,18.88,0,0,1,6.91-9.41,3.74,3.74,0,0,0,.35-5.79,8.19,8.19,0,0,1-2.08-3,8.29,8.29,0,0,1,4.75-10.77l.59-.2a8.26,8.26,0,0,1,2.43-.36,8.43,8.43,0,0,1,4.69,1.43,3.86,3.86,0,0,0,4.26,0,8.4,8.4,0,0,1,7.12-1.07l.55.19a8.26,8.26,0,0,1,1.72,14.58,3.79,3.79,0,0,0-1.63,2.9,3.7,3.7,0,0,0,1.31,3.06,18.88,18.88,0,0,1,5.7,8.46,6.58,6.58,0,0,1-1,6.08,7,7,0,0,1-5.62,2.83H76.15Z"/><path d="M103.3,85.79a16.1,16.1,0,0,0-7.62-9.06c-.2-.11-.39-.23-.59-.32-.37-.19-.75-.33-1.14-.49H81.78c-.44.18-.89.36-1.31.58s-.74.41-1.1.63a16.08,16.08,0,0,0-6.92,8.66,3.81,3.81,0,0,0,3.7,4.94H79.6a8.26,8.26,0,0,1,4-5h0l.08,0h0a8.28,8.28,0,0,1,1.06-.46l.34-.11A6.66,6.66,0,0,1,86,84.9l.36-.07a8.67,8.67,0,0,1,1.25-.11,7.9,7.9,0,0,1,1.39.12,6.17,6.17,0,0,1,.65.17,4.69,4.69,0,0,1,.67.17,6.74,6.74,0,0,1,.87.38,3.68,3.68,0,0,1,.35.15,7.22,7.22,0,0,1,1,.63l.12.08a8.2,8.2,0,0,1,3,4.31h4A3.81,3.81,0,0,0,103.3,85.79Z"/><path d="M82.58,68.92a5.42,5.42,0,0,1-5-3.39,5.26,5.26,0,0,1,3-6.85l.37-.13a5.37,5.37,0,0,1,6.55,3.16,5.25,5.25,0,0,1-3,6.85l-.37.13A5.37,5.37,0,0,1,82.58,68.92Z"/><ellipse class="cls-9" cx="84.35" cy="63.73" rx="1.41" ry="1.69"/><ellipse class="cls-10" cx="83.43" cy="66.31" rx="0.49" ry="0.59"/><path d="M96,68.92a5.41,5.41,0,0,0,5-3.39,5.26,5.26,0,0,0-3-6.85l-.37-.13a5.3,5.3,0,0,0-1.53-.23,5.42,5.42,0,0,0-5,3.39,5.25,5.25,0,0,0,3,6.85l.37.13A5.37,5.37,0,0,0,96,68.92Z"/><ellipse class="cls-11" cx="94.26" cy="63.73" rx="1.41" ry="1.69"/><ellipse class="cls-12" cx="95.18" cy="66.31" rx="0.49" ry="0.59"/><path class="cls-13" d="M87.59,84.72a8.3,8.3,0,0,0-8,6h16A8.31,8.31,0,0,0,87.59,84.72Z"/><path class="cls-14" d="M84.7,79.25a6.13,6.13,0,0,1-4.49-2l.52-.28c.37-.19.77-.35,1.16-.51h12l.09,0c.29.12.57.23.84.36a5,5,0,0,1-3.37,1.31,4.87,4.87,0,0,1-1.91-.39,1,1,0,0,0-.38-.07.93.93,0,0,0-.6.21A6.18,6.18,0,0,1,84.7,79.25Z"/><path class="cls-15" d="M80.73,77.75c.37-.19.77-.36,1.16-.52h12l.09,0,.21.09a5.05,5.05,0,0,0,.63-.49c-.27-.13-.55-.24-.84-.36l-.09,0h-12c-.39.16-.79.32-1.16.51l-.52.28a5.79,5.79,0,0,0,.51.48Z"/><path class="cls-16" d="M93,90.73h2.55a8.2,8.2,0,0,0-3-4.31l-.12-.08a8.32,8.32,0,0,0-1-.63,3.68,3.68,0,0,0-.35-.15,6.74,6.74,0,0,0-.87-.38,4.69,4.69,0,0,0-.67-.17,6.17,6.17,0,0,0-.65-.17,9,9,0,0,0-1.39-.12,8.67,8.67,0,0,0-1.25.11L86,84.9a8.7,8.7,0,0,0-.88.22l-.34.11a8.28,8.28,0,0,0-1.06.46h0l-.06,0a8.5,8.5,0,0,1,1.14-.08A9.32,9.32,0,0,1,93,90.73Z"/><ellipse class="cls-17" cx="87.81" cy="89.57" rx="1.06" ry="0.32"/><ellipse class="cls-17" cx="84.99" cy="87.12" rx="0.64" ry="0.31"/></svg>