<svg xmlns="http://www.w3.org/2000/svg" viewBox="0 0 311.23 92"><defs><style>.cls-1{fill:#421526;}.cls-2{fill:#edeade;}.cls-3{fill:#d6d3c9;}.cls-4{fill:#98c12a;}</style></defs><g id="Layer_2" data-name="Layer 2"><g id="Ui"><path class="cls-1" d="M281.23,12.2H86.11A30,30,0,0,0,62,0H30A30.09,30.09,0,0,0,0,30V62A30.09,30.09,0,0,0,30,92H62A30,30,0,0,0,86.53,79.2h194.7a30.09,30.09,0,0,0,30-30v-7A30.09,30.09,0,0,0,281.23,12.2Z"/><rect class="cls-2" x="135.23" y="-96.8" width="57" height="285" rx="25" transform="translate(209.43 -118.02) rotate(90)"/><rect class="cls-3" x="5" y="5" width="82" height="82" rx="25" transform="translate(92) rotate(90)"/><rect class="cls-2" x="10" y="10" width="72" height="72" rx="20" transform="translate(92) rotate(90)"/><path class="cls-4" d="M53.64,50.06c-2,0-2.88-.07-3.23.28s-.35,1.33-.35,3.3V58.4c0,3.15.35,4.55-4.06,4.55s-4.06-1.4-4.06-4.55V53.64c0-2,.14-3-.28-3.3s-1.33-.28-3.3-.28H33.6c-3.15,0-4.55.35-4.55-4.06s1.4-4.06,4.55-4.06h4.76c2,0,2.88.07,3.3-.35s.28-1.26.28-3.23V33.6c0-3.15-.35-4.55,4.06-4.55s4.06,1.4,4.06,4.55v4.76c0,2,0,2.81.35,3.23s1.26.35,3.23.35H58.4c3.15,0,4.55-.35,4.55,4.06s-1.4,4.06-4.55,4.06Z"/><path class="cls-4" d="M46,62c-1.49,0-2.41-.17-2.75-.51s-.33-1.24-.32-2.39V53.64c0-.44,0-.82,0-1.16,0-1.45,0-2.33-.65-2.9a3.73,3.73,0,0,0-2.5-.52H32.4c-1,0-1.57,0-1.84-.32s-.51-1.26-.51-2.75c0-3.07.45-3.07,2.35-3.07h7.25c1.25,0,2.11,0,2.71-.65s.59-1.42.58-3.09V33c0-1.15,0-2.05.32-2.39s1.26-.51,2.75-.51,2.41.17,2.75.51.33,1.24.32,2.38v5.42c0,2.24,0,3.17.59,3.87s1.57.71,2.71.71H59.6c1.9,0,2.35,0,2.35,3.07s-.45,3.07-2.35,3.07H52.2c-1.19,0-2,0-2.49.58s-.66,1.59-.65,3.27v6.15c0,1.14,0,2-.32,2.38S47.49,62,46,62Z"/><path class="cls-3" d="M63.55,44.16A7.26,7.26,0,0,1,64,47c0,4.41-1.4,4.06-4.55,4.06H54.64c-2,0-2.88-.07-3.23.28s-.35,1.33-.35,3.3V59.4c0,3.15.35,4.55-4.06,4.55a7.26,7.26,0,0,1-2.84-.4c.38,1,1.35,1.4,3.84,1.4,4.41,0,4.06-1.4,4.06-4.55V55.64c0-2-.07-2.88.35-3.3s1.26-.28,3.23-.28H60.4c3.15,0,4.55.35,4.55-4.06C65,45.51,64.51,44.54,63.55,44.16Z"/><path class="cls-2" d="M44,32.47a22.61,22.61,0,0,1,2.47,0,4.34,4.34,0,0,1,.63.05h0a.13.13,0,0,1-.07-.06c0-.06,0-.06,0,0a.65.65,0,0,0,.05.2c0-.11,0-.13,0-.06v.23s0,.2,0,.09,0,.09,0,.11a1.62,1.62,0,0,1,0,.19c0,.14-.06.27-.1.41s-.16.52-.23.79a4.88,4.88,0,0,0-.3,1.51.63.63,0,1,0,1.25,0c0-.08,0-.16,0-.23s0,.06,0,.06v-.06l0-.16c0-.22.11-.44.17-.66.13-.45.28-.9.38-1.35a2.66,2.66,0,0,0,0-1.4,1.18,1.18,0,0,0-.76-.82,4.65,4.65,0,0,0-1.06-.11,23.82,23.82,0,0,0-2.39,0,.65.65,0,0,0-.63.63.64.64,0,0,0,.63.62Z"/></g></g></svg>