<svg xmlns="http://www.w3.org/2000/svg" viewBox="0 0 50.98 42.39"><defs><style>.cls-1{fill:#421526;}.cls-2{fill:#b9273f;}.cls-3{fill:#ec3851;}.cls-4{fill:#fff;}</style></defs><g id="Layer_2" data-name="Layer 2"><g id="Ui"><path class="cls-1" d="M20.27,42.39c-6.32,0-9.44-4.66-11.5-7.75l-.31-.46c-.46-.69-1-1.42-1.52-2.18C4.38,28.39,1.2,23.89.28,19.22-1,12.45,2.48,6.12,9.51,2.7a13.88,13.88,0,0,1,6.06-1.65c3.77,0,6.05,2.21,7.72,4.24C26,2.81,29.86,0,34.34,0l.91,0A22.78,22.78,0,0,1,43,1a13.36,13.36,0,0,1,3.9,2.16,10.74,10.74,0,0,1,3.84,6.08A13.67,13.67,0,0,1,49.5,17.6c-4,9.54-16.22,19.88-25.22,24a8.78,8.78,0,0,1-3.11.77C20.87,42.37,20.57,42.39,20.27,42.39Z"/><path class="cls-2" d="M34.78,5.08a19.54,19.54,0,0,1,6.56.74,8,8,0,0,1,2.39,1.32,5.71,5.71,0,0,1,2.07,3.19,9.06,9.06,0,0,1-1,5.3C41.48,23.58,30.37,33.23,22.18,37a3.72,3.72,0,0,1-1.36.33c-4.21.3-6.09-2.88-8.16-5.95-2.51-3.72-6.53-8.64-7.41-13.11-1-5,2.18-8.89,6.48-11,5.82-2.84,6.44,0,9.92,4.09a1.7,1.7,0,0,0,2.44.14C26.11,9.63,30.57,4.73,34.78,5.08Z"/><path class="cls-3" d="M45.8,10.33a5.71,5.71,0,0,0-2.07-3.19,8,8,0,0,0-2.39-1.32,19.54,19.54,0,0,0-6.56-.74c-4.21-.35-8.67,4.55-10.69,6.41,0,0,0,0-.05,0,8.42,6.7-20,6.7-4.1,25.76a8.42,8.42,0,0,0,.88,0A3.72,3.72,0,0,0,22.18,37c8.19-3.74,19.3-13.39,22.66-21.34A9.06,9.06,0,0,0,45.8,10.33Z"/><path class="cls-4" d="M33.6,10.66a5.8,5.8,0,0,1,3.37.55c.85.33,2.06.69,2.22,1.74a.63.63,0,0,0,.77.43.64.64,0,0,0,.44-.77c-.22-1.44-1.69-2-2.87-2.52a7.14,7.14,0,0,0-4.26-.64c-.78.19-.45,1.39.33,1.21Z"/></g></g></svg>