<svg xmlns="http://www.w3.org/2000/svg" viewBox="0 0 48.26 40.91"><defs><style>.cls-1{fill:#999;}.cls-2{fill:#bbbdbf;}.cls-3{fill:#808184;}</style></defs><g id="Layer_2" data-name="Layer 2"><g id="Ui"><path class="cls-1" d="M19.68,40.91c-6.66,0-10-5-11.78-7.66l-.26-.38c-.39-.58-.81-1.18-1.25-1.8C4.06,27.79,1.17,23.71.29,19.22-1.07,12.34,2.44,6,9.45,2.55A13.87,13.87,0,0,1,15.65.9a9.87,9.87,0,0,1,6.8,2.74A15.21,15.21,0,0,1,31.7,0h.81a21.37,21.37,0,0,1,7.38,1,13.68,13.68,0,0,1,4,2.24A11.47,11.47,0,0,1,48,9.77a14,14,0,0,1-1.21,8.52C43.15,27,32.16,36.32,24.07,40a10,10,0,0,1-3.47.86C20.3,40.9,20,40.91,19.68,40.91Z"/><path class="cls-2" d="M40.77,7.14a8.55,8.55,0,0,0-2.53-1.4A17,17,0,0,0,32.42,5H31.7C28.65,5,25.86,7.19,24,8.84a2.65,2.65,0,0,1-1.78.68h-.2a2.64,2.64,0,0,1-1.86-1C18.89,7,17.62,5.9,15.65,5.9a9.27,9.27,0,0,0-4,1.14c-4.95,2.41-7.36,6.6-6.45,11.21.68,3.44,3.22,7,5.28,9.93.47.66.92,1.29,1.31,1.89l.28.4c1.62,2.42,3.63,5.44,7.62,5.44l.57,0A5.12,5.12,0,0,0,22,35.46c7.27-3.31,17.13-11.79,20.22-19.11a9.31,9.31,0,0,0,.92-5.53A6.54,6.54,0,0,0,40.77,7.14Z"/><path class="cls-3" d="M11.64,9.7a9.27,9.27,0,0,1,4-1.14c2,0,3.24,1.06,4.54,2.65a2.64,2.64,0,0,0,1.86,1h.2A2.65,2.65,0,0,0,24,11.5c1.83-1.65,4.62-3.84,7.67-3.84h.72a17,17,0,0,1,5.82.73,8.55,8.55,0,0,1,2.53,1.4,6.51,6.51,0,0,1,2.35,3.66,6.7,6.7,0,0,0,0-2.64,6.49,6.49,0,0,0-2.36-3.68,8.55,8.55,0,0,0-2.53-1.4A17,17,0,0,0,32.42,5H31.7C28.65,5,25.86,7.19,24,8.84a2.65,2.65,0,0,1-1.78.68h-.2a2.64,2.64,0,0,1-1.86-1C18.89,7,17.62,5.9,15.65,5.9a9.27,9.27,0,0,0-4,1.14c-4.7,2.29-7.08,6.2-6.52,10.54C5.64,14.33,7.92,11.51,11.64,9.7Z"/></g></g></svg>