<svg xmlns="http://www.w3.org/2000/svg" viewBox="0 0 607.47 92"><defs><style>.cls-1{fill:#421526;}.cls-2{fill:#edeade;}.cls-3{fill:#d6d3c9;}.cls-4{fill:#bbbdbf;}.cls-5{fill:#fff;}.cls-6{fill:#2788c5;}.cls-7{fill:#6cbde5;}.cls-8{fill:#2179a5;}</style></defs><g id="Layer_2" data-name="Layer 2"><g id="Ui"><rect class="cls-1" x="278.35" y="-249.92" width="67" height="591.25" rx="23.49" transform="translate(357.55 -266.15) rotate(90)"/><rect class="cls-1" width="92" height="92" rx="30" transform="translate(92) rotate(90)"/><rect class="cls-2" x="283.35" y="-244.92" width="57" height="581.25" rx="18.49" transform="translate(357.55 -266.15) rotate(90)"/><rect class="cls-2" x="283.35" y="-244.92" width="57" height="581.25" rx="18.49" transform="translate(357.55 -266.15) rotate(90)"/><rect class="cls-3" x="5" y="5" width="82" height="82" rx="25" transform="translate(92) rotate(90)"/><rect class="cls-2" x="10" y="10" width="72" height="72" rx="20" transform="translate(92) rotate(90)"/><path class="cls-4" d="M67.89,59.74A24.3,24.3,0,0,1,49.17,71.18c0,.38,0,.76,0,1.14A25.46,25.46,0,0,0,69,60.12Z"/><path class="cls-5" d="M45.64,67.27A22.53,22.53,0,1,1,68.16,44.74,22.56,22.56,0,0,1,45.64,67.27Z"/><circle class="cls-6" cx="45.64" cy="44.74" r="21.53"/><path class="cls-7" d="M45.64,23.22c-.58,0-1.14,0-1.7.08a21.51,21.51,0,0,1,0,42.88c.56,0,1.12.09,1.7.09a21.53,21.53,0,0,0,0-43Z"/><path class="cls-8" d="M26.15,49A30.34,30.34,0,0,1,49,23.5,21.41,21.41,0,0,0,24.11,44.74a21.36,21.36,0,0,0,1.79,8.58A29.92,29.92,0,0,1,26.15,49Z"/><path class="cls-5" d="M52.1,30A11.92,11.92,0,0,0,48,28a.64.64,0,0,0-.77.44.63.63,0,0,0,.43.77,10.57,10.57,0,0,1,3.86,1.87.63.63,0,0,0,.86-.22A.65.65,0,0,0,52.1,30Z"/><path class="cls-5" d="M53.92,39.14l-7.63,5.25a1.7,1.7,0,0,1-2,0L41.19,42a1.7,1.7,0,0,0-2.38.34h0a1.69,1.69,0,0,0,.33,2.38l3.19,2.4,1.88,1.42a1.71,1.71,0,0,0,2,.05l1.94-1.34,7.7-5.31a1.7,1.7,0,0,0,.44-2.37h0A1.7,1.7,0,0,0,53.92,39.14Z"/></g></g></svg>